<svg xmlns="http://www.w3.org/2000/svg" width="200" height="40" viewBox="0 0 100 20">
    <path fill="#1877F2" d="M14.414 11.233H9.426V19.46H4.254V11.233H1.414V6.262H4.254V2.735C4.254.498 5.753 0 9.07 0c1.332 0 2.22 0 2.825.132v4.83H10.155c-1.398 0-1.745.545-1.745 1.764v2.036h6.004l-1 5.03zM25.797 6.262c3.09 0 5.483 2.052 5.483 6.13-.016 4.078-2.393 6.13-5.483 6.13-3.09 0-5.484-2.052-5.484-6.13 0-4.078 2.394-6.13 5.484-6.13zm0 9.53c2.053 0 2.92-1.77 2.92-3.4 0-1.63-.867-3.4-2.92-3.4-2.053 0-2.921 1.77-2.921 3.4 0 1.63.868 3.4 2.921 3.4zM37.312 6.262c3.091 0 5.484 2.052 5.484 6.13 0 4.078-2.393 6.13-5.484 6.13-3.09 0-5.483-2.052-5.483-6.13 0-4.078 2.393-6.13 5.483-6.13zm0 9.53c2.054 0 2.921-1.77 2.921-3.4 0-1.63-.867-3.4-2.92-3.4-2.054 0-2.922 1.77-2.922 3.4 0 1.63.868 3.4 2.921 3.4zM49.61 6.262c.162 0 .324.016.485.033V11.1h-1.28c-1.4 0-2.164.71-2.164 2.8v4.614h-5.17V1.1h5.17v5.162zm6.331 5.967h4.86c-.161-1.769-.884-3.4-2.431-3.4-1.547 0-2.27.163-2.43 3.4zm-.161-.933c0-4.079 2.394-6.13 5.484-6.13 3.09 0 5.483 2.051 5.483 6.13V13.8h-11.455v1.995c0 1.631.868 3 2.921 3 2.053 0 2.92-.163 2.92-1v-.931h4.943c0 2.035-2.046 6.13-5.161 6.13-3.116 0-5.484-2.051-5.484-6.13z"/>
</svg>
