<svg xmlns="http://www.w3.org/2000/svg" width="108" height="24" viewBox="0 0 108 24"><path fill="#f25022" d="M0 0h11.4v11.4H0z"/><path fill="#7fba00" d="M12.6 0H24v11.4H12.6z"/><path fill="#00a4ef" d="M0 12.6h11.4V24H0z"/><path fill="#ffb900" d="M12.6 12.6H24V24H12.6z"/><path fill="#737373" d="M36.1 17.5v-6.9h-1.6v-1.4h4.1v8.3h-2.5zm6.8 0v-8.3h1.6v8.3h-1.6zm.8-9.4c-.6 0-1-.4-1-.9 0-.6.4-.9 1-.9.6 0 1 .4 1 .9 0 .5-.4.9-1 .9zm8.5 9.5c-2.4 0-4.1-1.7-4.1-4.3s1.7-4.3 4.2-4.3c1.7 0 3 .8 3.7 2.1l-1.3.8c-.5-.9-1.3-1.4-2.3-1.4-1.5 0-2.5 1.1-2.5 2.8 0 1.6 1 2.8 2.5 2.8 1.1 0 1.9-.6 2.3-1.5l1.3.7c-.7 1.4-2 2.3-3.8 2.3zm7-8.3v1.5c-.5-.6-1.5-1.6-2.9-1.6-1.6 0-3 1.1-3 3.6v4.8h1.6v-4.6c0-1.7.9-2.4 2-2.4 1.3 0 2.2.8 2.2 2.6v4.4h1.7v-4.9c0-2.1-1.1-3.4-3-3.4-.6 0-1.4.2-1.9.6v-.6h-1.7zm11.4 8.4c-2.3 0-4-1.7-4-4.2s1.7-4.3 4-4.3 4 1.7 4 4.3-1.7 4.2-4 4.2zm0-1.5c1.4 0 2.4-1.1 2.4-2.7 0-1.6-1-2.8-2.4-2.8-1.4 0-2.4 1.1-2.4 2.8 0 1.6 1 2.7 2.4 2.7zm8.3 1.5c-1.5 0-2.6-.5-3.3-1.4l1.1-1c.6.7 1.4 1.1 2.2 1.1 1.1 0 1.5-.5 1.5-1 0-.6-.4-.9-1.5-1.2-1.5-.4-2.6-1.1-2.6-2.4 0-1.3 1.1-2.4 2.9-2.4 1.2 0 2.2.4 2.9 1.1l-1 1.1c-.6-.6-1.2-.8-1.9-.8-.9 0-1.3.4-1.3 1 0 .6.5.8 1.5 1.1 1.6.4 2.7 1.1 2.7 2.5 0 1.4-1.1 2.3-3.2 2.3zm12.6 0c-2.3 0-4-1.7-4-4.2s1.7-4.3 4-4.3 4 1.7 4 4.3-1.7 4.2-4 4.2zm0-1.5c1.4 0 2.4-1.1 2.4-2.7 0-1.6-1-2.8-2.4-2.8-1.4 0-2.4 1.1-2.4 2.8 0 1.6 1 2.7 2.4 2.7zm7.5 1.4v-6.9h-1.7v-1.4h1.7v-.9c0-1.6 1.1-2.4 2.7-2.4h1.4v1.4h-1.2c-.8 0-1.2.4-1.2 1.2v.7h2.3v1.4h-2.3v6.9h-1.7zm6-.7l-.4-1.1c.4.2 1 .4 1.5.4.8 0 1.1-.3 1.1-1.1v-5.8h1.6v6c0 1.5-.8 2.2-2.3 2.2-.6.1-1.1-.1-1.5-.6zm1-7.8v-1.4h1.6v1.4H106z"/></svg>
