<svg aria-label="Microsoft" data-testid="microsoftLogo" role="img" width="114" height="24" viewBox="0 0 114 24" fill="none" xmlns="http://www.w3.org/2000/svg">
  <path d="M47.2997 5.30006V19.7001H44.7997V8.40006H44.7664L40.2997 19.7001H38.633L34.0664 8.40006H34.033V19.7001H31.733V5.30006H35.333L39.4664 15.9667H39.533L43.8997 5.30006H47.2997Z" fill="#737373"></path>
  <path d="M13.2383 13.2383H24.5V24.5H13.2383V13.2383Z" fill="#FFB900"></path>
  <path d="M0.5 13.2383H11.7617V24.5H0.5V13.2383Z" fill="#00A4EF"></path>
  <path d="M13.2383 0.5H24.5V11.7617H13.2383V0.5Z" fill="#7FBA00"></path>
  <path d="M0.5 0.5H11.7617V11.7617H0.5V0.5Z" fill="#F25022"></path>
  <path d="M51.2997 19.7001H53.7997V5.30006H51.2997V19.7001ZM56.2997 19.7001H58.7997L61.2997 14.7001L63.7997 19.7001H66.2997L62.2997 12.2001L66.2997 5.30006H63.7997L61.2997 10.3001L58.7997 5.30006H56.2997L60.2997 12.2001L56.2997 19.7001Z" fill="#737373"></path>
</svg>
