<svg xmlns="http://www.w3.org/2000/svg" viewBox="0 0 1000 285" width="175" height="51"><path d="M492.651,192.176c11.02,0,21.579-2.399,31.677-7.199c15.836,36.002,49.897,55.195,95.502,55.195c25.431,0,48.455-8.158,68.618-24.962V235.85H731.2V136.985h-42.222v26.399c-19.189-16.797-40.781-25.441-65.259-25.441c-43.662,0-76.305,18.723-93.582,53.277c-9.117-4.322-18.718-6.244-28.796-6.244c-19.673,0-36.467,7.199-50.86,21.604v-75.362h-42.231V235.85h41.748v-84.478l0.482-1.444C463.366,134.582,477.291,126.901,492.651,192.176z M574.698,206.577c-25.922,0-44.629-17.759-44.629-43.678c0-25.441,18.707-42.716,44.629-42.716c25.912,0,44.623,17.275,44.623,43.197C619.321,188.818,600.61,206.577,574.698,206.577z M265.176,177.3h42.232v4.809c0,5.275-0.957,8.629-2.883,10.076c-3.35,2.399-9.11,3.842-16.786,4.322l14.388,40.32c5.272-1.921,9.828-4.32,13.911-7.198c8.636-6.245,13.916-16.321,15.352-29.757h40.312c0,35.525-15.353,58.077-44.63,65.278c-10.551,2.885-23.018,4.32-37.423,4.32h-11.037V177.3z M193.687,177.3h42.233v4.809c0,5.275-0.959,8.629-2.882,10.076c-3.355,2.399-9.112,3.842-16.786,4.322l14.39,40.32c5.272-1.921,9.832-4.32,13.914-7.198c8.632-6.245,13.912-16.321,15.35-29.757H299.72c0,35.525-15.352,58.077-44.63,65.278c-10.552,2.885-23.018,4.32-37.424,4.32h-11.036V177.3z M347.23,178.61h39.83v-65.7h-39.83V178.61z M347.23,235.85h39.83v-30.85H347.23V235.85z M44.632,240.17c30.229,0,51.821-23.518,51.821-52.793c0-30.24-21.592-51.839-51.821-51.839V102.5h103.17V69.414H2.404V240.17H44.632z"/><path d="M129.434,69.414v168.96h39.821V69.414H129.434z"/><path d="M856.938,136.985v-24.962h-41.267v24.962h-22.072v27.359h22.072v48.477c0,16.797,8.635,27.355,27.83,27.355h15.829v-27.355h-9.593v-48.477h21.11v-27.359H856.938z"/><path d="M967.311,136.985v25.441c-20.146-16.804-43.181-24.962-68.618-24.962c-45.602,0-79.664,19.196-95.5,54.717c-17.272-35.039-49.907-54.717-94.062-54.717c-25.918,0-49.432,8.635-69.577,25.918v-26.397H597.32v98.86h42.227v-63.355c14.391-14.881,31.666-22.559,51.815-22.559c9.599,0,18.711,1.918,27.352,6.236c17.273-34.555,49.909-53.754,94.067-53.754c25.912,0,49.429,8.638,69.576,25.922v-26.398H967.311z M761.42,143.226c-25.922,0-44.629,17.275-44.629,43.197c0,25.438,18.707,43.197,44.629,43.197c25.911,0,44.623-17.759,44.623-43.197C806.043,160.501,787.331,143.226,761.42,143.226z M931.321,143.226c-25.923,0-44.63,17.275-44.63,43.197c0,25.438,18.707,43.197,44.63,43.197c25.912,0,44.623-17.759,44.623-43.197C975.944,160.501,957.233,143.226,931.321,143.226z"/></svg>
