<svg xmlns="http://www.w3.org/2000/svg" width="175" height="51" viewBox="0 0 3500 1022">
    <path fill="#000" d="M1066.8 511.1c0 148.9-120.7 269.6-269.6 269.6S527.6 660 527.6 511.1s120.7-269.6 269.6-269.6 269.6 120.7 269.6 269.6zm-101.4 0c0-93-75.4-168.3-168.3-168.3s-168.2 75.3-168.2 168.3 75.4 168.2 168.2 168.2 168.3-75.3 168.3-168.2zm484.9-57.8c0-149.2-120.7-269.8-269.6-269.8s-269.6 120.6-269.6 269.8c0 148.9 120.7 269.6 269.6 269.6s269.6-120.7 269.6-269.6zm-101.4 0c0 93.1-75.4 168.3-168.3 168.3s-168.3-75.2-168.3-168.3c0-93 75.4-168.3 168.3-168.3s168.3 75.3 168.3 168.3zm816.6-105.1c0-100-50.5-146.4-124.6-146.4-59.5 0-86.1 33.2-101 56.4h-1.5V191.1h-96.5v636h101.4V580.4c0-133.5 131.7-133.9 131.7-2.3v249h101.4V511.1c.1-131.8-10.9-162.9-10.9-162.9zm507.7 248.9l-22.3-56.3h-123.6l-22.3 56.3h-107.4l131.9-312.3c27.6-65.5 31.7-72.2 46.1-72.2s18.4 6.7 46.1 72.2l131.9 312.3h-103.2-37.2zm-42.5-107.5l-39.2-99.2-39.7 99.2h78.9zm1026.5-199.1c0 148.9-120.7 269.6-269.6 269.6s-269.6-120.7-269.6-269.6 120.7-269.6 269.6-269.6 269.6 120.7 269.6 269.6zm-101.4 0c0-93-75.4-168.3-168.3-168.3s-168.2 75.3-168.2 168.3 75.4 168.2 168.2 168.2 168.3-75.3 168.3-168.2zm484.9-57.8c0-149.2-120.7-269.8-269.6-269.8s-269.6 120.6-269.6 269.8c0 148.9 120.7 269.6 269.6 269.6s269.6-120.7 269.6-269.6zm-101.4 0c0 93.1-75.4 168.3-168.3 168.3s-168.3-75.2-168.3-168.3c0-93 75.4-168.3 168.3-168.3s168.3 75.3 168.3 168.3zm-3140.5 407.4V263.6l101.7-18.7v581.5c.2 81.3 64.9 146 146.2 146h176.6V1022H271.7c-94.6.1-171.3-76.4-171.4-170.9z"/>
</svg>
